<mxfile host="app.diagrams.net" modified="2022-01-05T23:23:37.671Z" agent="5.0 (Windows NT 10.0; Win64; x64) AppleWebKit/537.36 (KHTML, like Gecko) Chrome/96.0.4664.110 Safari/537.36" etag="VTLxu75Y3DjnHPVd7Vs6" version="16.0.0" type="github">
  <diagram id="BTvWTTK-OskF5Yp7cwZ_" name="Page-1">
    <mxGraphModel dx="1108" dy="460" grid="1" gridSize="10" guides="1" tooltips="1" connect="1" arrows="1" fold="1" page="1" pageScale="1" pageWidth="827" pageHeight="1169" math="0" shadow="0">
      <root>
        <mxCell id="0" />
        <mxCell id="1" parent="0" />
        <mxCell id="1Ovtjq9R8lrvQR8nFTWf-1" value="APLICATTIVO - GUIA DE PROCESSOS" style="text;html=1;align=center;verticalAlign=middle;resizable=0;points=[];autosize=1;strokeColor=none;fillColor=none;" vertex="1" parent="1">
          <mxGeometry x="200" y="20" width="230" height="20" as="geometry" />
        </mxCell>
        <mxCell id="1Ovtjq9R8lrvQR8nFTWf-4" value="" style="edgeStyle=orthogonalEdgeStyle;rounded=0;orthogonalLoop=1;jettySize=auto;html=1;" edge="1" parent="1" source="1Ovtjq9R8lrvQR8nFTWf-2" target="1Ovtjq9R8lrvQR8nFTWf-3">
          <mxGeometry relative="1" as="geometry" />
        </mxCell>
        <mxCell id="1Ovtjq9R8lrvQR8nFTWf-2" value="Menu Guia de processos" style="rounded=0;whiteSpace=wrap;html=1;" vertex="1" parent="1">
          <mxGeometry x="80" y="80" width="120" height="60" as="geometry" />
        </mxCell>
        <mxCell id="1Ovtjq9R8lrvQR8nFTWf-6" value="Input de dados" style="edgeStyle=orthogonalEdgeStyle;rounded=0;orthogonalLoop=1;jettySize=auto;html=1;" edge="1" parent="1" source="1Ovtjq9R8lrvQR8nFTWf-3" target="1Ovtjq9R8lrvQR8nFTWf-5">
          <mxGeometry relative="1" as="geometry" />
        </mxCell>
        <mxCell id="1Ovtjq9R8lrvQR8nFTWf-3" value="Tipo do processo&lt;br&gt;[Preparação de calda, pulverização ou limpeza]" style="whiteSpace=wrap;html=1;rounded=0;" vertex="1" parent="1">
          <mxGeometry x="280" y="80" width="120" height="60" as="geometry" />
        </mxCell>
        <mxCell id="1Ovtjq9R8lrvQR8nFTWf-21" value="Análise dos dados&amp;nbsp;" style="edgeStyle=orthogonalEdgeStyle;rounded=0;orthogonalLoop=1;jettySize=auto;html=1;" edge="1" parent="1" source="1Ovtjq9R8lrvQR8nFTWf-5" target="1Ovtjq9R8lrvQR8nFTWf-20">
          <mxGeometry relative="1" as="geometry" />
        </mxCell>
        <mxCell id="1Ovtjq9R8lrvQR8nFTWf-5" value="Iniciar" style="whiteSpace=wrap;html=1;rounded=0;" vertex="1" parent="1">
          <mxGeometry x="280" y="220" width="120" height="60" as="geometry" />
        </mxCell>
        <mxCell id="1Ovtjq9R8lrvQR8nFTWf-10" value="Finaliza etapa" style="edgeStyle=orthogonalEdgeStyle;rounded=0;orthogonalLoop=1;jettySize=auto;html=1;" edge="1" parent="1" source="1Ovtjq9R8lrvQR8nFTWf-7">
          <mxGeometry relative="1" as="geometry">
            <mxPoint x="340" y="640" as="targetPoint" />
          </mxGeometry>
        </mxCell>
        <mxCell id="1Ovtjq9R8lrvQR8nFTWf-7" value="Sugestão de etapa" style="whiteSpace=wrap;html=1;rounded=0;" vertex="1" parent="1">
          <mxGeometry x="280" y="500" width="120" height="60" as="geometry" />
        </mxCell>
        <mxCell id="1Ovtjq9R8lrvQR8nFTWf-11" value="SIM" style="edgeStyle=orthogonalEdgeStyle;rounded=0;orthogonalLoop=1;jettySize=auto;html=1;entryX=1;entryY=0.5;entryDx=0;entryDy=0;exitX=1;exitY=0.5;exitDx=0;exitDy=0;" edge="1" parent="1" source="1Ovtjq9R8lrvQR8nFTWf-12" target="1Ovtjq9R8lrvQR8nFTWf-7">
          <mxGeometry relative="1" as="geometry">
            <mxPoint x="440" y="520" as="targetPoint" />
            <mxPoint x="400" y="670" as="sourcePoint" />
            <Array as="points">
              <mxPoint x="440" y="680" />
              <mxPoint x="440" y="530" />
            </Array>
          </mxGeometry>
        </mxCell>
        <mxCell id="1Ovtjq9R8lrvQR8nFTWf-16" value="NÃO" style="edgeStyle=orthogonalEdgeStyle;rounded=0;orthogonalLoop=1;jettySize=auto;html=1;" edge="1" parent="1" source="1Ovtjq9R8lrvQR8nFTWf-12" target="1Ovtjq9R8lrvQR8nFTWf-15">
          <mxGeometry relative="1" as="geometry" />
        </mxCell>
        <mxCell id="1Ovtjq9R8lrvQR8nFTWf-12" value="Mais&lt;br&gt;etapas?" style="rhombus;whiteSpace=wrap;html=1;" vertex="1" parent="1">
          <mxGeometry x="300" y="640" width="80" height="80" as="geometry" />
        </mxCell>
        <mxCell id="1Ovtjq9R8lrvQR8nFTWf-17" style="edgeStyle=orthogonalEdgeStyle;rounded=0;orthogonalLoop=1;jettySize=auto;html=1;entryX=0;entryY=0.5;entryDx=0;entryDy=0;" edge="1" parent="1" source="1Ovtjq9R8lrvQR8nFTWf-15" target="1Ovtjq9R8lrvQR8nFTWf-2">
          <mxGeometry relative="1" as="geometry" />
        </mxCell>
        <mxCell id="1Ovtjq9R8lrvQR8nFTWf-15" value="Finaliza processo&amp;nbsp;" style="whiteSpace=wrap;html=1;" vertex="1" parent="1">
          <mxGeometry x="280" y="810" width="120" height="60" as="geometry" />
        </mxCell>
        <mxCell id="1Ovtjq9R8lrvQR8nFTWf-19" style="edgeStyle=orthogonalEdgeStyle;rounded=0;orthogonalLoop=1;jettySize=auto;html=1;entryX=1;entryY=0.5;entryDx=0;entryDy=0;" edge="1" parent="1" source="1Ovtjq9R8lrvQR8nFTWf-18" target="1Ovtjq9R8lrvQR8nFTWf-5">
          <mxGeometry relative="1" as="geometry" />
        </mxCell>
        <mxCell id="1Ovtjq9R8lrvQR8nFTWf-18" value="Dados de API externa e sensores" style="shape=process;whiteSpace=wrap;html=1;backgroundOutline=1;" vertex="1" parent="1">
          <mxGeometry x="450" y="220" width="120" height="60" as="geometry" />
        </mxCell>
        <mxCell id="1Ovtjq9R8lrvQR8nFTWf-25" value="NÃO" style="edgeStyle=orthogonalEdgeStyle;rounded=0;orthogonalLoop=1;jettySize=auto;html=1;" edge="1" parent="1" source="1Ovtjq9R8lrvQR8nFTWf-20" target="1Ovtjq9R8lrvQR8nFTWf-24">
          <mxGeometry relative="1" as="geometry" />
        </mxCell>
        <mxCell id="1Ovtjq9R8lrvQR8nFTWf-26" value="SIM" style="edgeStyle=orthogonalEdgeStyle;rounded=0;orthogonalLoop=1;jettySize=auto;html=1;" edge="1" parent="1" source="1Ovtjq9R8lrvQR8nFTWf-20" target="1Ovtjq9R8lrvQR8nFTWf-7">
          <mxGeometry relative="1" as="geometry" />
        </mxCell>
        <mxCell id="1Ovtjq9R8lrvQR8nFTWf-20" value="Dados &quot;ok&quot;&lt;br&gt;para início do procedimento?&amp;nbsp;" style="rhombus;whiteSpace=wrap;html=1;rounded=0;" vertex="1" parent="1">
          <mxGeometry x="300" y="350" width="80" height="80" as="geometry" />
        </mxCell>
        <mxCell id="1Ovtjq9R8lrvQR8nFTWf-28" value="" style="edgeStyle=orthogonalEdgeStyle;rounded=0;orthogonalLoop=1;jettySize=auto;html=1;" edge="1" parent="1" source="1Ovtjq9R8lrvQR8nFTWf-24" target="1Ovtjq9R8lrvQR8nFTWf-27">
          <mxGeometry relative="1" as="geometry" />
        </mxCell>
        <mxCell id="1Ovtjq9R8lrvQR8nFTWf-24" value="Mensagem negativa ao usuário sobre a analise dos dados" style="whiteSpace=wrap;html=1;rounded=0;" vertex="1" parent="1">
          <mxGeometry x="120" y="360" width="120" height="60" as="geometry" />
        </mxCell>
        <mxCell id="1Ovtjq9R8lrvQR8nFTWf-29" value="SIM" style="edgeStyle=orthogonalEdgeStyle;rounded=0;orthogonalLoop=1;jettySize=auto;html=1;entryX=0;entryY=0.5;entryDx=0;entryDy=0;exitX=1;exitY=0.5;exitDx=0;exitDy=0;" edge="1" parent="1" source="1Ovtjq9R8lrvQR8nFTWf-27" target="1Ovtjq9R8lrvQR8nFTWf-7">
          <mxGeometry relative="1" as="geometry" />
        </mxCell>
        <mxCell id="1Ovtjq9R8lrvQR8nFTWf-31" value="NÃO" style="edgeStyle=orthogonalEdgeStyle;rounded=0;orthogonalLoop=1;jettySize=auto;html=1;entryX=0.25;entryY=0;entryDx=0;entryDy=0;exitX=0.5;exitY=1;exitDx=0;exitDy=0;" edge="1" parent="1" source="1Ovtjq9R8lrvQR8nFTWf-27" target="1Ovtjq9R8lrvQR8nFTWf-15">
          <mxGeometry relative="1" as="geometry">
            <Array as="points">
              <mxPoint x="180" y="750" />
              <mxPoint x="310" y="750" />
            </Array>
          </mxGeometry>
        </mxCell>
        <mxCell id="1Ovtjq9R8lrvQR8nFTWf-27" value="Continuar assim mesmo?" style="rhombus;whiteSpace=wrap;html=1;rounded=0;" vertex="1" parent="1">
          <mxGeometry x="140" y="490" width="80" height="80" as="geometry" />
        </mxCell>
        <mxCell id="1Ovtjq9R8lrvQR8nFTWf-34" value="APLICATTIVO - Monitoração Bico de pulverização" style="text;html=1;align=center;verticalAlign=middle;resizable=0;points=[];autosize=1;strokeColor=none;fillColor=none;" vertex="1" parent="1">
          <mxGeometry x="200" y="980" width="280" height="20" as="geometry" />
        </mxCell>
        <mxCell id="1Ovtjq9R8lrvQR8nFTWf-37" value="" style="edgeStyle=orthogonalEdgeStyle;rounded=0;orthogonalLoop=1;jettySize=auto;html=1;" edge="1" parent="1" source="1Ovtjq9R8lrvQR8nFTWf-35" target="1Ovtjq9R8lrvQR8nFTWf-36">
          <mxGeometry relative="1" as="geometry" />
        </mxCell>
        <mxCell id="1Ovtjq9R8lrvQR8nFTWf-35" value="Menu Pontas" style="rounded=0;whiteSpace=wrap;html=1;" vertex="1" parent="1">
          <mxGeometry x="80" y="1040" width="120" height="60" as="geometry" />
        </mxCell>
        <mxCell id="1Ovtjq9R8lrvQR8nFTWf-43" value="" style="edgeStyle=orthogonalEdgeStyle;rounded=0;orthogonalLoop=1;jettySize=auto;html=1;" edge="1" parent="1" source="1Ovtjq9R8lrvQR8nFTWf-36" target="1Ovtjq9R8lrvQR8nFTWf-42">
          <mxGeometry relative="1" as="geometry" />
        </mxCell>
        <mxCell id="1Ovtjq9R8lrvQR8nFTWf-36" value="Análise dos dados de vazão" style="whiteSpace=wrap;html=1;rounded=0;" vertex="1" parent="1">
          <mxGeometry x="280" y="1040" width="120" height="60" as="geometry" />
        </mxCell>
        <mxCell id="1Ovtjq9R8lrvQR8nFTWf-41" value="" style="edgeStyle=orthogonalEdgeStyle;rounded=0;orthogonalLoop=1;jettySize=auto;html=1;" edge="1" parent="1" source="1Ovtjq9R8lrvQR8nFTWf-40" target="1Ovtjq9R8lrvQR8nFTWf-36">
          <mxGeometry relative="1" as="geometry" />
        </mxCell>
        <mxCell id="1Ovtjq9R8lrvQR8nFTWf-40" value="Dados de API externa e sensores" style="shape=process;whiteSpace=wrap;html=1;backgroundOutline=1;" vertex="1" parent="1">
          <mxGeometry x="470" y="1040" width="120" height="60" as="geometry" />
        </mxCell>
        <mxCell id="1Ovtjq9R8lrvQR8nFTWf-44" style="edgeStyle=orthogonalEdgeStyle;rounded=0;orthogonalLoop=1;jettySize=auto;html=1;entryX=0.5;entryY=1;entryDx=0;entryDy=0;" edge="1" parent="1" source="1Ovtjq9R8lrvQR8nFTWf-42" target="1Ovtjq9R8lrvQR8nFTWf-35">
          <mxGeometry relative="1" as="geometry" />
        </mxCell>
        <mxCell id="1Ovtjq9R8lrvQR8nFTWf-45" value="SAIR" style="edgeLabel;html=1;align=center;verticalAlign=middle;resizable=0;points=[];" vertex="1" connectable="0" parent="1Ovtjq9R8lrvQR8nFTWf-44">
          <mxGeometry x="-0.36" y="1" relative="1" as="geometry">
            <mxPoint as="offset" />
          </mxGeometry>
        </mxCell>
        <mxCell id="1Ovtjq9R8lrvQR8nFTWf-42" value="Sugestão de troca, limpeza ou status OK dos bicos" style="whiteSpace=wrap;html=1;rounded=0;" vertex="1" parent="1">
          <mxGeometry x="280" y="1180" width="120" height="60" as="geometry" />
        </mxCell>
        <mxCell id="1Ovtjq9R8lrvQR8nFTWf-46" value="APLICATTIVO - Histórico de Pulverizações" style="text;html=1;align=center;verticalAlign=middle;resizable=0;points=[];autosize=1;strokeColor=none;fillColor=none;" vertex="1" parent="1">
          <mxGeometry x="200" y="1300" width="240" height="20" as="geometry" />
        </mxCell>
        <mxCell id="1Ovtjq9R8lrvQR8nFTWf-49" value="" style="edgeStyle=orthogonalEdgeStyle;rounded=0;orthogonalLoop=1;jettySize=auto;html=1;" edge="1" parent="1" source="1Ovtjq9R8lrvQR8nFTWf-47" target="1Ovtjq9R8lrvQR8nFTWf-48">
          <mxGeometry relative="1" as="geometry" />
        </mxCell>
        <mxCell id="1Ovtjq9R8lrvQR8nFTWf-47" value="Menu Histórico" style="rounded=0;whiteSpace=wrap;html=1;" vertex="1" parent="1">
          <mxGeometry x="80" y="1360" width="120" height="60" as="geometry" />
        </mxCell>
        <mxCell id="1Ovtjq9R8lrvQR8nFTWf-51" value="Escolher" style="edgeStyle=orthogonalEdgeStyle;rounded=0;orthogonalLoop=1;jettySize=auto;html=1;" edge="1" parent="1" source="1Ovtjq9R8lrvQR8nFTWf-48" target="1Ovtjq9R8lrvQR8nFTWf-50">
          <mxGeometry relative="1" as="geometry" />
        </mxCell>
        <mxCell id="1Ovtjq9R8lrvQR8nFTWf-48" value="Lista de pulverizações" style="whiteSpace=wrap;html=1;rounded=0;" vertex="1" parent="1">
          <mxGeometry x="280" y="1360" width="120" height="60" as="geometry" />
        </mxCell>
        <mxCell id="1Ovtjq9R8lrvQR8nFTWf-62" style="edgeStyle=orthogonalEdgeStyle;rounded=0;orthogonalLoop=1;jettySize=auto;html=1;entryX=0.5;entryY=1;entryDx=0;entryDy=0;" edge="1" parent="1" source="1Ovtjq9R8lrvQR8nFTWf-50" target="1Ovtjq9R8lrvQR8nFTWf-47">
          <mxGeometry relative="1" as="geometry" />
        </mxCell>
        <mxCell id="1Ovtjq9R8lrvQR8nFTWf-63" value="SAIR" style="edgeLabel;html=1;align=center;verticalAlign=middle;resizable=0;points=[];" vertex="1" connectable="0" parent="1Ovtjq9R8lrvQR8nFTWf-62">
          <mxGeometry x="-0.224" y="-1" relative="1" as="geometry">
            <mxPoint as="offset" />
          </mxGeometry>
        </mxCell>
        <mxCell id="1Ovtjq9R8lrvQR8nFTWf-50" value="Retorno de dados da pulverização" style="whiteSpace=wrap;html=1;rounded=0;" vertex="1" parent="1">
          <mxGeometry x="280" y="1500" width="120" height="60" as="geometry" />
        </mxCell>
        <mxCell id="1Ovtjq9R8lrvQR8nFTWf-58" value="Data da pulverização&lt;br&gt;Tempo gasto&lt;br&gt;Clima&lt;br&gt;Dados do pulverizador&lt;br&gt;Usuário" style="shape=note;whiteSpace=wrap;html=1;backgroundOutline=1;darkOpacity=0.05;" vertex="1" parent="1">
          <mxGeometry x="430" y="1490" width="180" height="80" as="geometry" />
        </mxCell>
        <mxCell id="1Ovtjq9R8lrvQR8nFTWf-61" value="" style="endArrow=none;dashed=1;html=1;rounded=0;entryX=0;entryY=0.5;entryDx=0;entryDy=0;entryPerimeter=0;exitX=1;exitY=0.5;exitDx=0;exitDy=0;" edge="1" parent="1" source="1Ovtjq9R8lrvQR8nFTWf-50" target="1Ovtjq9R8lrvQR8nFTWf-58">
          <mxGeometry width="50" height="50" relative="1" as="geometry">
            <mxPoint x="390" y="1450" as="sourcePoint" />
            <mxPoint x="440" y="1400" as="targetPoint" />
          </mxGeometry>
        </mxCell>
        <mxCell id="1Ovtjq9R8lrvQR8nFTWf-64" value="APLICATTIVO - Histórico de Pulverizações" style="text;html=1;align=center;verticalAlign=middle;resizable=0;points=[];autosize=1;strokeColor=none;fillColor=none;" vertex="1" parent="1">
          <mxGeometry x="200" y="1660" width="240" height="20" as="geometry" />
        </mxCell>
        <mxCell id="1Ovtjq9R8lrvQR8nFTWf-67" value="" style="edgeStyle=orthogonalEdgeStyle;rounded=0;orthogonalLoop=1;jettySize=auto;html=1;" edge="1" parent="1" source="1Ovtjq9R8lrvQR8nFTWf-65" target="1Ovtjq9R8lrvQR8nFTWf-66">
          <mxGeometry relative="1" as="geometry" />
        </mxCell>
        <mxCell id="1Ovtjq9R8lrvQR8nFTWf-65" value="Menu Limpreza" style="rounded=0;whiteSpace=wrap;html=1;" vertex="1" parent="1">
          <mxGeometry x="80" y="1720" width="120" height="60" as="geometry" />
        </mxCell>
        <mxCell id="1Ovtjq9R8lrvQR8nFTWf-68" value="SAIR" style="edgeStyle=orthogonalEdgeStyle;rounded=0;orthogonalLoop=1;jettySize=auto;html=1;entryX=0.5;entryY=1;entryDx=0;entryDy=0;exitX=0.5;exitY=1;exitDx=0;exitDy=0;" edge="1" parent="1" source="1Ovtjq9R8lrvQR8nFTWf-66" target="1Ovtjq9R8lrvQR8nFTWf-65">
          <mxGeometry relative="1" as="geometry" />
        </mxCell>
        <mxCell id="1Ovtjq9R8lrvQR8nFTWf-66" value="Exibe informações sobre limpeza do pulverizador" style="whiteSpace=wrap;html=1;rounded=0;" vertex="1" parent="1">
          <mxGeometry x="280" y="1720" width="120" height="60" as="geometry" />
        </mxCell>
        <mxCell id="1Ovtjq9R8lrvQR8nFTWf-69" value="APLICATTIVO - Segurança nos processos" style="text;html=1;align=center;verticalAlign=middle;resizable=0;points=[];autosize=1;strokeColor=none;fillColor=none;" vertex="1" parent="1">
          <mxGeometry x="200" y="1860" width="240" height="20" as="geometry" />
        </mxCell>
        <mxCell id="1Ovtjq9R8lrvQR8nFTWf-72" value="" style="edgeStyle=orthogonalEdgeStyle;rounded=0;orthogonalLoop=1;jettySize=auto;html=1;" edge="1" parent="1" source="1Ovtjq9R8lrvQR8nFTWf-70" target="1Ovtjq9R8lrvQR8nFTWf-71">
          <mxGeometry relative="1" as="geometry" />
        </mxCell>
        <mxCell id="1Ovtjq9R8lrvQR8nFTWf-70" value="Menu EPI" style="rounded=0;whiteSpace=wrap;html=1;" vertex="1" parent="1">
          <mxGeometry x="80" y="1920" width="120" height="60" as="geometry" />
        </mxCell>
        <mxCell id="1Ovtjq9R8lrvQR8nFTWf-74" value="Escolhe" style="edgeStyle=orthogonalEdgeStyle;rounded=0;orthogonalLoop=1;jettySize=auto;html=1;" edge="1" parent="1" source="1Ovtjq9R8lrvQR8nFTWf-71" target="1Ovtjq9R8lrvQR8nFTWf-73">
          <mxGeometry relative="1" as="geometry" />
        </mxCell>
        <mxCell id="1Ovtjq9R8lrvQR8nFTWf-71" value="Tipo de processo" style="whiteSpace=wrap;html=1;rounded=0;" vertex="1" parent="1">
          <mxGeometry x="280" y="1920" width="120" height="60" as="geometry" />
        </mxCell>
        <mxCell id="1Ovtjq9R8lrvQR8nFTWf-75" style="edgeStyle=orthogonalEdgeStyle;rounded=0;orthogonalLoop=1;jettySize=auto;html=1;entryX=0.5;entryY=1;entryDx=0;entryDy=0;exitX=0.5;exitY=1;exitDx=0;exitDy=0;" edge="1" parent="1" source="1Ovtjq9R8lrvQR8nFTWf-73" target="1Ovtjq9R8lrvQR8nFTWf-70">
          <mxGeometry relative="1" as="geometry" />
        </mxCell>
        <mxCell id="1Ovtjq9R8lrvQR8nFTWf-73" value="Sugestão de&amp;nbsp; EPI" style="whiteSpace=wrap;html=1;rounded=0;" vertex="1" parent="1">
          <mxGeometry x="280" y="2060" width="120" height="60" as="geometry" />
        </mxCell>
      </root>
    </mxGraphModel>
  </diagram>
</mxfile>
